<?xml version="1.0" encoding="UTF-8"?>
<svg version="1.1" xmlns="http://www.w3.org/2000/svg" width="50" height="50">
<path d="M0 0 C9.24 0 18.48 0 28 0 C28 4.62 28 9.24 28 14 C32.62 14 37.24 14 42 14 C42 23.24 42 32.48 42 42 C32.76 42 23.52 42 14 42 C14 37.38 14 32.76 14 28 C9.38 28 4.76 28 0 28 C0 18.76 0 9.52 0 0 Z M15 6 C14.67 8.64 14.34 11.28 14 14 C11.36 14.33 8.72 14.66 6 15 C6 15.66 6 16.32 6 17 C9.63 17 13.26 17 17 17 C17 13.37 17 9.74 17 6 C16.34 6 15.68 6 15 6 Z M25 25 C25 28.63 25 32.26 25 36 C25.66 36 26.32 36 27 36 C27.33 33.36 27.66 30.72 28 28 C30.64 27.67 33.28 27.34 36 27 C36 26.34 36 25.68 36 25 C32.37 25 28.74 25 25 25 Z " fill="#2666FF" transform="translate(4,4)"/>
</svg>
